<mxfile host="app.diagrams.net" agent="Mozilla/5.0 (Macintosh; Intel Mac OS X 10_15_7) AppleWebKit/537.36 (KHTML, like Gecko) Chrome/138.0.0.0 Safari/537.36" version="27.2.0">
  <diagram id="Ht1M8jgEwFfnCIfOTk4-" name="Page-1">
    <mxGraphModel dx="1122" dy="749" grid="1" gridSize="10" guides="1" tooltips="1" connect="1" arrows="1" fold="1" page="1" pageScale="1" pageWidth="1169" pageHeight="827" math="0" shadow="0">
      <root>
        <mxCell id="0" />
        <mxCell id="1" parent="0" />
        <mxCell id="-SwOJ4ZzwDQcredPTqo0-1" value="AWS Cloud" style="points=[[0,0],[0.25,0],[0.5,0],[0.75,0],[1,0],[1,0.25],[1,0.5],[1,0.75],[1,1],[0.75,1],[0.5,1],[0.25,1],[0,1],[0,0.75],[0,0.5],[0,0.25]];outlineConnect=0;html=1;whiteSpace=wrap;fontSize=12;fontStyle=0;container=1;pointerEvents=0;collapsible=0;recursiveResize=0;shape=mxgraph.aws4.group;grIcon=mxgraph.aws4.group_aws_cloud_alt;fillColor=none;verticalAlign=top;align=left;spacingLeft=30;dashed=0;" vertex="1" parent="1">
          <mxGeometry x="160" y="67" width="740" height="693" as="geometry" />
        </mxCell>
        <mxCell id="-SwOJ4ZzwDQcredPTqo0-58" value="Region A" style="points=[[0,0],[0.25,0],[0.5,0],[0.75,0],[1,0],[1,0.25],[1,0.5],[1,0.75],[1,1],[0.75,1],[0.5,1],[0.25,1],[0,1],[0,0.75],[0,0.5],[0,0.25]];outlineConnect=0;gradientColor=none;html=1;whiteSpace=wrap;fontSize=12;fontStyle=0;container=1;pointerEvents=0;collapsible=0;recursiveResize=0;shape=mxgraph.aws4.group;grIcon=mxgraph.aws4.group_region;strokeColor=#00A4A6;fillColor=none;verticalAlign=top;align=left;spacingLeft=30;fontColor=#147EBA;dashed=1;" vertex="1" parent="-SwOJ4ZzwDQcredPTqo0-1">
          <mxGeometry x="64" y="50" width="636" height="330" as="geometry" />
        </mxCell>
        <mxCell id="-SwOJ4ZzwDQcredPTqo0-83" value="&lt;font style=&quot;color: rgb(103, 171, 159);&quot;&gt;Availability Zone b&lt;/font&gt;" style="fillColor=none;dashed=1;verticalAlign=top;fontStyle=0;whiteSpace=wrap;html=1;strokeColor=#67AB9F;" vertex="1" parent="-SwOJ4ZzwDQcredPTqo0-58">
          <mxGeometry x="386" y="42.5" width="200" height="153" as="geometry" />
        </mxCell>
        <mxCell id="-SwOJ4ZzwDQcredPTqo0-82" value="Availability Zone a" style="fillColor=none;strokeColor=#147EBA;dashed=1;verticalAlign=top;fontStyle=0;fontColor=#147EBA;whiteSpace=wrap;html=1;" vertex="1" parent="-SwOJ4ZzwDQcredPTqo0-58">
          <mxGeometry x="57" y="40" width="200" height="153" as="geometry" />
        </mxCell>
        <mxCell id="-SwOJ4ZzwDQcredPTqo0-89" style="edgeStyle=orthogonalEdgeStyle;rounded=0;orthogonalLoop=1;jettySize=auto;html=1;dashed=1;endArrow=classic;endFill=1;fillColor=#ffcc99;strokeColor=#FFB366;" edge="1" parent="-SwOJ4ZzwDQcredPTqo0-58" source="-SwOJ4ZzwDQcredPTqo0-77" target="-SwOJ4ZzwDQcredPTqo0-79">
          <mxGeometry relative="1" as="geometry" />
        </mxCell>
        <mxCell id="-SwOJ4ZzwDQcredPTqo0-77" value="Mysql Primary" style="sketch=0;outlineConnect=0;fontColor=#232F3E;gradientColor=none;fillColor=#3333FF;strokeColor=none;dashed=0;verticalLabelPosition=bottom;verticalAlign=top;align=center;html=1;fontSize=12;fontStyle=0;aspect=fixed;pointerEvents=1;shape=mxgraph.aws4.rds_instance;" vertex="1" parent="-SwOJ4ZzwDQcredPTqo0-58">
          <mxGeometry x="116" y="79" width="78" height="78" as="geometry" />
        </mxCell>
        <mxCell id="-SwOJ4ZzwDQcredPTqo0-79" value="Mysql Read Replica" style="sketch=0;outlineConnect=0;fontColor=#232F3E;gradientColor=none;fillColor=#3333FF;strokeColor=none;dashed=0;verticalLabelPosition=bottom;verticalAlign=top;align=center;html=1;fontSize=12;fontStyle=0;aspect=fixed;pointerEvents=1;shape=mxgraph.aws4.rds_instance;" vertex="1" parent="-SwOJ4ZzwDQcredPTqo0-58">
          <mxGeometry x="446" y="80" width="78" height="78" as="geometry" />
        </mxCell>
        <mxCell id="-SwOJ4ZzwDQcredPTqo0-90" value="Replication Async" style="text;html=1;align=center;verticalAlign=middle;whiteSpace=wrap;rounded=0;" vertex="1" parent="-SwOJ4ZzwDQcredPTqo0-58">
          <mxGeometry x="277" y="87" width="94" height="30" as="geometry" />
        </mxCell>
        <mxCell id="-SwOJ4ZzwDQcredPTqo0-92" value="Secrets Manager" style="sketch=0;points=[[0,0,0],[0.25,0,0],[0.5,0,0],[0.75,0,0],[1,0,0],[0,1,0],[0.25,1,0],[0.5,1,0],[0.75,1,0],[1,1,0],[0,0.25,0],[0,0.5,0],[0,0.75,0],[1,0.25,0],[1,0.5,0],[1,0.75,0]];outlineConnect=0;fontColor=#232F3E;fillColor=#DD344C;strokeColor=#ffffff;dashed=0;verticalLabelPosition=bottom;verticalAlign=top;align=center;html=1;fontSize=12;fontStyle=0;aspect=fixed;shape=mxgraph.aws4.resourceIcon;resIcon=mxgraph.aws4.secrets_manager;" vertex="1" parent="-SwOJ4ZzwDQcredPTqo0-58">
          <mxGeometry x="318" y="239" width="57" height="57" as="geometry" />
        </mxCell>
        <mxCell id="-SwOJ4ZzwDQcredPTqo0-81" value="Read access" style="text;html=1;align=center;verticalAlign=middle;whiteSpace=wrap;rounded=0;" vertex="1" parent="-SwOJ4ZzwDQcredPTqo0-58">
          <mxGeometry x="86" y="216" width="94" height="30" as="geometry" />
        </mxCell>
        <mxCell id="-SwOJ4ZzwDQcredPTqo0-76" value="Region B" style="points=[[0,0],[0.25,0],[0.5,0],[0.75,0],[1,0],[1,0.25],[1,0.5],[1,0.75],[1,1],[0.75,1],[0.5,1],[0.25,1],[0,1],[0,0.75],[0,0.5],[0,0.25]];outlineConnect=0;html=1;whiteSpace=wrap;fontSize=12;fontStyle=0;container=1;pointerEvents=0;collapsible=0;recursiveResize=0;shape=mxgraph.aws4.group;grIcon=mxgraph.aws4.group_region;verticalAlign=top;align=left;spacingLeft=30;dashed=1;fillColor=none;" vertex="1" parent="-SwOJ4ZzwDQcredPTqo0-1">
          <mxGeometry x="64" y="450" width="436" height="208" as="geometry" />
        </mxCell>
        <mxCell id="-SwOJ4ZzwDQcredPTqo0-84" value="Mysql Read Replica" style="sketch=0;outlineConnect=0;fontColor=#232F3E;gradientColor=none;fillColor=#3333FF;strokeColor=none;dashed=0;verticalLabelPosition=bottom;verticalAlign=top;align=center;html=1;fontSize=12;fontStyle=0;aspect=fixed;pointerEvents=1;shape=mxgraph.aws4.rds_instance;" vertex="1" parent="-SwOJ4ZzwDQcredPTqo0-76">
          <mxGeometry x="115" y="80.5" width="78" height="78" as="geometry" />
        </mxCell>
        <mxCell id="-SwOJ4ZzwDQcredPTqo0-85" value="&lt;font style=&quot;color: rgb(126, 166, 224);&quot;&gt;Availability Zone b&lt;/font&gt;" style="fillColor=none;dashed=1;verticalAlign=top;fontStyle=0;whiteSpace=wrap;html=1;strokeColor=#7EA6E0;" vertex="1" parent="-SwOJ4ZzwDQcredPTqo0-76">
          <mxGeometry x="55" y="43" width="200" height="153" as="geometry" />
        </mxCell>
        <mxCell id="-SwOJ4ZzwDQcredPTqo0-91" value="Secrets Manager" style="sketch=0;points=[[0,0,0],[0.25,0,0],[0.5,0,0],[0.75,0,0],[1,0,0],[0,1,0],[0.25,1,0],[0.5,1,0],[0.75,1,0],[1,1,0],[0,0.25,0],[0,0.5,0],[0,0.75,0],[1,0.25,0],[1,0.5,0],[1,0.75,0]];outlineConnect=0;fontColor=#232F3E;fillColor=#DD344C;strokeColor=#ffffff;dashed=0;verticalLabelPosition=bottom;verticalAlign=top;align=center;html=1;fontSize=12;fontStyle=0;aspect=fixed;shape=mxgraph.aws4.resourceIcon;resIcon=mxgraph.aws4.secrets_manager;" vertex="1" parent="-SwOJ4ZzwDQcredPTqo0-76">
          <mxGeometry x="318" y="85" width="57" height="57" as="geometry" />
        </mxCell>
        <mxCell id="-SwOJ4ZzwDQcredPTqo0-93" style="edgeStyle=orthogonalEdgeStyle;rounded=0;orthogonalLoop=1;jettySize=auto;html=1;dashed=1;strokeColor=#FFB366;" edge="1" parent="-SwOJ4ZzwDQcredPTqo0-1" target="-SwOJ4ZzwDQcredPTqo0-91">
          <mxGeometry relative="1" as="geometry">
            <mxPoint x="410" y="373" as="sourcePoint" />
          </mxGeometry>
        </mxCell>
        <mxCell id="-SwOJ4ZzwDQcredPTqo0-94" value="Replication" style="text;html=1;align=center;verticalAlign=middle;whiteSpace=wrap;rounded=0;" vertex="1" parent="-SwOJ4ZzwDQcredPTqo0-1">
          <mxGeometry x="400" y="403" width="94" height="30" as="geometry" />
        </mxCell>
        <mxCell id="-SwOJ4ZzwDQcredPTqo0-86" style="edgeStyle=orthogonalEdgeStyle;rounded=0;orthogonalLoop=1;jettySize=auto;html=1;" edge="1" parent="1" source="-SwOJ4ZzwDQcredPTqo0-36" target="-SwOJ4ZzwDQcredPTqo0-83">
          <mxGeometry relative="1" as="geometry">
            <Array as="points">
              <mxPoint x="700" y="340" />
            </Array>
          </mxGeometry>
        </mxCell>
        <mxCell id="-SwOJ4ZzwDQcredPTqo0-87" style="edgeStyle=orthogonalEdgeStyle;rounded=0;orthogonalLoop=1;jettySize=auto;html=1;" edge="1" parent="1" target="-SwOJ4ZzwDQcredPTqo0-84">
          <mxGeometry relative="1" as="geometry">
            <mxPoint x="73" y="410" as="sourcePoint" />
            <Array as="points">
              <mxPoint x="73" y="630" />
            </Array>
          </mxGeometry>
        </mxCell>
        <mxCell id="-SwOJ4ZzwDQcredPTqo0-36" value="Web" style="outlineConnect=0;dashed=0;verticalLabelPosition=bottom;verticalAlign=top;align=center;html=1;shape=mxgraph.aws3.management_console;fillColor=#D2D3D3;gradientColor=none;" vertex="1" parent="1">
          <mxGeometry x="41.5" y="325.5" width="63" height="63" as="geometry" />
        </mxCell>
        <mxCell id="-SwOJ4ZzwDQcredPTqo0-38" style="edgeStyle=orthogonalEdgeStyle;rounded=0;orthogonalLoop=1;jettySize=auto;html=1;" edge="1" parent="1" source="-SwOJ4ZzwDQcredPTqo0-36" target="-SwOJ4ZzwDQcredPTqo0-77">
          <mxGeometry relative="1" as="geometry">
            <mxPoint x="171.75" y="357" as="targetPoint" />
            <Array as="points">
              <mxPoint x="73" y="240" />
            </Array>
          </mxGeometry>
        </mxCell>
        <mxCell id="-SwOJ4ZzwDQcredPTqo0-78" value="Read/Write access" style="text;html=1;align=center;verticalAlign=middle;whiteSpace=wrap;rounded=0;" vertex="1" parent="1">
          <mxGeometry x="90" y="211" width="60" height="30" as="geometry" />
        </mxCell>
        <mxCell id="-SwOJ4ZzwDQcredPTqo0-88" value="Read access" style="text;html=1;align=center;verticalAlign=middle;whiteSpace=wrap;rounded=0;" vertex="1" parent="1">
          <mxGeometry x="73" y="600" width="94" height="30" as="geometry" />
        </mxCell>
      </root>
    </mxGraphModel>
  </diagram>
</mxfile>
